<?xml version="1.0" encoding="UTF-8" standalone="no"?><!-- Generator: Gravit.io --><svg xmlns="http://www.w3.org/2000/svg" xmlns:xlink="http://www.w3.org/1999/xlink" style="isolation:isolate" viewBox="0 0 240 240" width="240pt" height="240pt"><defs><clipPath id="_clipPath_OvRjcNARBNTckeb7xWbUHkBKh5sGduEo"><rect width="240" height="240"/></clipPath></defs><g clip-path="url(#_clipPath_OvRjcNARBNTckeb7xWbUHkBKh5sGduEo)"><g><g><g><path d=" M 174.638 215.661 L 168.722 214.297 C 141.831 208.096 98.169 208.096 71.279 214.297 L 65.363 215.661 L 63.586 209.855 C 55.511 183.467 33.679 145.654 14.864 125.467 L 10.725 121.026 L 14.864 116.585 C 33.679 96.397 55.511 58.584 63.586 32.196 L 65.363 26.391 L 71.279 27.755 C 98.169 33.956 141.831 33.956 168.722 27.755 L 174.638 26.391 L 176.414 32.196 C 184.489 58.584 206.321 96.397 225.136 116.585 L 229.275 121.026 L 225.136 125.467 C 206.321 145.654 184.489 183.467 176.414 209.855 L 174.638 215.661 Z " fill="none" vector-effect="non-scaling-stroke" stroke-width="1" stroke="rgb(0,0,0)" stroke-linejoin="miter" stroke-linecap="square" stroke-miterlimit="3"/><line x1="65.363" y1="26.391" x2="174.638" y2="215.661" vector-effect="non-scaling-stroke" stroke-width="2" stroke="rgb(0,0,0)" stroke-linejoin="miter" stroke-linecap="square" stroke-miterlimit="3"/><line x1="174.638" y1="26.391" x2="65.363" y2="215.661" vector-effect="non-scaling-stroke" stroke-width="2" stroke="rgb(0,0,0)" stroke-linejoin="miter" stroke-linecap="square" stroke-miterlimit="3"/><line x1="10.725" y1="121.026" x2="229.275" y2="121.026" vector-effect="non-scaling-stroke" stroke-width="2" stroke="rgb(0,0,0)" stroke-linejoin="miter" stroke-linecap="square" stroke-miterlimit="3"/></g><g><path d=" M 165.26 199.419 L 165.26 199.419 C 140.28 193.659 99.72 193.659 74.74 199.419 L 74.74 199.419 L 74.74 199.419 C 67.238 174.906 46.958 139.779 29.48 121.026 L 29.48 121.026 L 29.48 121.026 C 46.958 102.273 67.238 67.146 74.74 42.633 L 74.74 42.633 L 74.74 42.633 C 99.72 48.393 140.28 48.393 165.26 42.633 L 165.26 42.633 L 165.26 42.633 C 172.762 67.146 193.042 102.273 210.52 121.026 L 210.52 121.026 L 210.52 121.026 C 193.042 139.779 172.762 174.906 165.26 199.419 L 165.26 199.419 Z " fill="none" vector-effect="non-scaling-stroke" stroke-width="1" stroke="rgb(0,0,0)" stroke-linejoin="miter" stroke-linecap="square" stroke-miterlimit="3"/><line x1="74.74" y1="42.633" x2="165.26" y2="199.419" vector-effect="non-scaling-stroke" stroke-width="2" stroke="rgb(0,0,0)" stroke-linejoin="miter" stroke-linecap="square" stroke-miterlimit="3"/><line x1="165.26" y1="42.633" x2="74.74" y2="199.419" vector-effect="non-scaling-stroke" stroke-width="2" stroke="rgb(0,0,0)" stroke-linejoin="miter" stroke-linecap="square" stroke-miterlimit="3"/><line x1="29.48" y1="121.026" x2="210.52" y2="121.026" vector-effect="non-scaling-stroke" stroke-width="2" stroke="rgb(0,0,0)" stroke-linejoin="miter" stroke-linecap="square" stroke-miterlimit="3"/></g><g><path d=" M 155.886 183.182 L 155.886 183.182 C 136.08 178.615 103.92 178.615 84.114 183.182 L 84.114 183.182 L 84.114 183.182 C 78.167 163.746 62.087 135.895 48.229 121.026 L 48.229 121.026 L 48.229 121.026 C 62.087 106.157 78.167 78.306 84.114 58.87 L 84.114 58.87 L 84.114 58.87 C 103.92 63.437 136.08 63.437 155.886 58.87 L 155.886 58.87 L 155.886 58.87 C 161.833 78.306 177.913 106.157 191.771 121.026 L 191.771 121.026 L 191.771 121.026 C 177.913 135.895 161.833 163.746 155.886 183.182 L 155.886 183.182 Z " fill="none" vector-effect="non-scaling-stroke" stroke-width="1" stroke="rgb(0,0,0)" stroke-linejoin="miter" stroke-linecap="square" stroke-miterlimit="3"/><line x1="84.114" y1="58.87" x2="155.886" y2="183.182" vector-effect="non-scaling-stroke" stroke-width="2" stroke="rgb(0,0,0)" stroke-linejoin="miter" stroke-linecap="square" stroke-miterlimit="3"/><line x1="155.886" y1="58.87" x2="84.114" y2="183.182" vector-effect="non-scaling-stroke" stroke-width="2" stroke="rgb(0,0,0)" stroke-linejoin="miter" stroke-linecap="square" stroke-miterlimit="3"/><line x1="48.229" y1="121.026" x2="191.771" y2="121.026" vector-effect="non-scaling-stroke" stroke-width="2" stroke="rgb(0,0,0)" stroke-linejoin="miter" stroke-linecap="square" stroke-miterlimit="3"/></g><g><path d=" M 146.511 166.944 L 146.511 166.944 C 131.879 163.571 108.121 163.571 93.489 166.944 L 93.489 166.944 L 93.489 166.944 C 89.095 152.586 77.216 132.01 66.978 121.026 L 66.978 121.026 L 66.978 121.026 C 77.216 110.041 89.095 89.466 93.489 75.107 L 93.489 75.107 L 93.489 75.107 C 108.121 78.481 131.879 78.481 146.511 75.107 L 146.511 75.107 L 146.511 75.107 C 150.905 89.466 162.784 110.041 173.022 121.026 L 173.022 121.026 L 173.022 121.026 C 162.784 132.01 150.905 152.586 146.511 166.944 L 146.511 166.944 Z " fill="none" vector-effect="non-scaling-stroke" stroke-width="1" stroke="rgb(0,0,0)" stroke-linejoin="miter" stroke-linecap="square" stroke-miterlimit="3"/><line x1="93.489" y1="75.107" x2="146.511" y2="166.944" vector-effect="non-scaling-stroke" stroke-width="2" stroke="rgb(0,0,0)" stroke-linejoin="miter" stroke-linecap="square" stroke-miterlimit="3"/><line x1="146.511" y1="75.107" x2="93.489" y2="166.944" vector-effect="non-scaling-stroke" stroke-width="2" stroke="rgb(0,0,0)" stroke-linejoin="miter" stroke-linecap="square" stroke-miterlimit="3"/><line x1="66.978" y1="121.026" x2="173.022" y2="121.026" vector-effect="non-scaling-stroke" stroke-width="2" stroke="rgb(0,0,0)" stroke-linejoin="miter" stroke-linecap="square" stroke-miterlimit="3"/></g><g><path d=" M 137.137 150.707 L 137.137 150.707 C 127.679 148.526 112.321 148.526 102.863 150.707 L 102.863 150.707 L 102.863 150.707 C 100.023 141.426 92.344 128.126 85.727 121.026 L 85.727 121.026 L 85.727 121.026 C 92.344 113.925 100.023 100.626 102.863 91.344 L 102.863 91.344 L 102.863 91.344 C 112.321 93.525 127.679 93.525 137.137 91.344 L 137.137 91.344 L 137.137 91.344 C 139.977 100.626 147.656 113.925 154.273 121.026 L 154.273 121.026 L 154.273 121.026 C 147.656 128.126 139.977 141.426 137.137 150.707 L 137.137 150.707 Z " fill="none" vector-effect="non-scaling-stroke" stroke-width="1" stroke="rgb(0,0,0)" stroke-linejoin="miter" stroke-linecap="square" stroke-miterlimit="3"/><line x1="102.863" y1="91.344" x2="137.137" y2="150.707" vector-effect="non-scaling-stroke" stroke-width="2" stroke="rgb(0,0,0)" stroke-linejoin="miter" stroke-linecap="square" stroke-miterlimit="3"/><line x1="137.137" y1="91.344" x2="102.863" y2="150.707" vector-effect="non-scaling-stroke" stroke-width="2" stroke="rgb(0,0,0)" stroke-linejoin="miter" stroke-linecap="square" stroke-miterlimit="3"/><line x1="85.727" y1="121.026" x2="154.273" y2="121.026" vector-effect="non-scaling-stroke" stroke-width="2" stroke="rgb(0,0,0)" stroke-linejoin="miter" stroke-linecap="square" stroke-miterlimit="3"/></g><g><path d=" M 127.762 134.47 L 127.762 134.47 C 123.478 133.482 116.522 133.482 112.238 134.47 L 112.238 134.47 L 112.238 134.47 C 110.951 130.266 107.473 124.242 104.476 121.026 L 104.476 121.026 L 104.476 121.026 C 107.473 117.81 110.951 111.785 112.238 107.581 L 112.238 107.581 L 112.238 107.581 C 116.522 108.569 123.478 108.569 127.762 107.581 L 127.762 107.581 L 127.762 107.581 C 129.049 111.785 132.527 117.81 135.524 121.026 L 135.524 121.026 L 135.524 121.026 C 132.527 124.242 129.049 130.266 127.762 134.47 L 127.762 134.47 Z " fill="none" vector-effect="non-scaling-stroke" stroke-width="1" stroke="rgb(0,0,0)" stroke-linejoin="miter" stroke-linecap="square" stroke-miterlimit="3"/><line x1="112.238" y1="107.581" x2="127.762" y2="134.47" vector-effect="non-scaling-stroke" stroke-width="2" stroke="rgb(0,0,0)" stroke-linejoin="miter" stroke-linecap="square" stroke-miterlimit="3"/><line x1="127.762" y1="107.581" x2="112.238" y2="134.47" vector-effect="non-scaling-stroke" stroke-width="2" stroke="rgb(0,0,0)" stroke-linejoin="miter" stroke-linecap="square" stroke-miterlimit="3"/><line x1="104.476" y1="121.026" x2="135.524" y2="121.026" vector-effect="non-scaling-stroke" stroke-width="2" stroke="rgb(0,0,0)" stroke-linejoin="miter" stroke-linecap="square" stroke-miterlimit="3"/></g></g><g filter="url(#eNMfDu4LWj8shRTMBxK7tTWq8FTqHeV5)"><g><ellipse vector-effect="non-scaling-stroke" cx="120.00000315971309" cy="160.83760203960964" rx="44.23530384844372" ry="11.058825962110916" fill="rgb(97,179,200)" stroke-width="1" stroke="rgb(0,0,0)" stroke-linejoin="miter" stroke-linecap="square" stroke-miterlimit="3"/><rect x="75.765" y="138.72" width="88.471" height="22.118" transform="matrix(1,0,0,1,0,0)" fill="rgb(97,179,200)"/><line x1="75.765" y1="138.72" x2="75.765" y2="160.838" vector-effect="non-scaling-stroke" stroke-width="1" stroke="rgb(0,0,0)" stroke-linejoin="miter" stroke-linecap="square" stroke-miterlimit="3"/><ellipse vector-effect="non-scaling-stroke" cx="120.00000315971309" cy="138.71995011538792" rx="44.23530384844372" ry="11.058825962110923" fill="rgb(255,255,255)" stroke-width="1" stroke="rgb(0,0,0)" stroke-linejoin="miter" stroke-linecap="square" stroke-miterlimit="3"/><line x1="164.235" y1="138.72" x2="164.235" y2="160.838" vector-effect="non-scaling-stroke" stroke-width="1" stroke="rgb(0,0,0)" stroke-linejoin="miter" stroke-linecap="square" stroke-miterlimit="3"/></g><g><ellipse vector-effect="non-scaling-stroke" cx="120.00000315971309" cy="132.52700757660568" rx="44.23530384844372" ry="11.058825962110923" fill="rgb(97,179,200)" stroke-width="1" stroke="rgb(0,0,0)" stroke-linejoin="miter" stroke-linecap="square" stroke-miterlimit="3"/><rect x="75.765" y="110.409" width="88.471" height="22.118" transform="matrix(1,0,0,1,0,0)" fill="rgb(97,179,200)"/><line x1="75.765" y1="110.409" x2="75.765" y2="132.527" vector-effect="non-scaling-stroke" stroke-width="1" stroke="rgb(0,0,0)" stroke-linejoin="miter" stroke-linecap="square" stroke-miterlimit="3"/><ellipse vector-effect="non-scaling-stroke" cx="120.00000315971309" cy="110.409355652384" rx="44.23530384844372" ry="11.05882596211093" fill="rgb(255,255,255)" stroke-width="1" stroke="rgb(0,0,0)" stroke-linejoin="miter" stroke-linecap="square" stroke-miterlimit="3"/><line x1="164.235" y1="110.409" x2="164.235" y2="132.527" vector-effect="non-scaling-stroke" stroke-width="1" stroke="rgb(0,0,0)" stroke-linejoin="miter" stroke-linecap="square" stroke-miterlimit="3"/></g><g><ellipse vector-effect="non-scaling-stroke" cx="120.00000315971309" cy="103.33170703663293" rx="44.23530384844372" ry="11.05882596211093" fill="rgb(97,179,200)" stroke-width="1" stroke="rgb(0,0,0)" stroke-linejoin="miter" stroke-linecap="square" stroke-miterlimit="3"/><rect x="75.765" y="81.214" width="88.471" height="22.118" transform="matrix(1,0,0,1,0,0)" fill="rgb(97,179,200)"/><line x1="75.765" y1="81.214" x2="75.765" y2="103.332" vector-effect="non-scaling-stroke" stroke-width="1" stroke="rgb(0,0,0)" stroke-linejoin="miter" stroke-linecap="square" stroke-miterlimit="3"/><ellipse vector-effect="non-scaling-stroke" cx="120.00000315971309" cy="81.21405511241116" rx="44.23530384844372" ry="11.05882596211093" fill="rgb(255,255,255)" stroke-width="1" stroke="rgb(0,0,0)" stroke-linejoin="miter" stroke-linecap="square" stroke-miterlimit="3"/><line x1="164.235" y1="81.214" x2="164.235" y2="103.332" vector-effect="non-scaling-stroke" stroke-width="1" stroke="rgb(0,0,0)" stroke-linejoin="miter" stroke-linecap="square" stroke-miterlimit="3"/></g></g><defs><filter id="eNMfDu4LWj8shRTMBxK7tTWq8FTqHeV5" x="-200%" y="-200%" width="400%" height="400%" filterUnits="objectBoundingBox" color-interpolation-filters="sRGB"><feGaussianBlur xmlns="http://www.w3.org/2000/svg" in="SourceGraphic" stdDeviation="18.033158063923917"/><feOffset xmlns="http://www.w3.org/2000/svg" dx="0" dy="0" result="pf_100_offsetBlur"/><feFlood xmlns="http://www.w3.org/2000/svg" flood-color="#000000" flood-opacity="0.65"/><feComposite xmlns="http://www.w3.org/2000/svg" in2="pf_100_offsetBlur" operator="in" result="pf_100_dropShadow"/><feBlend xmlns="http://www.w3.org/2000/svg" in="SourceGraphic" in2="pf_100_dropShadow" mode="normal" result="_out_dXleNiKSqBEnxb3qe48c2vssokJbrMEq"/><feOffset xmlns="http://www.w3.org/2000/svg" in="_out_dXleNiKSqBEnxb3qe48c2vssokJbrMEq" dx="0" dy="0"/><feGaussianBlur xmlns="http://www.w3.org/2000/svg" stdDeviation="4.293609062839028" result="pf_101_offsetBlur"/><feComposite xmlns="http://www.w3.org/2000/svg" in="_out_dXleNiKSqBEnxb3qe48c2vssokJbrMEq" in2="pf_101_offsetBlur" result="pf_101_inverse" operator="out"/><feFlood xmlns="http://www.w3.org/2000/svg" flood-color="#000000" flood-opacity="0.5" result="pf_101_color"/><feComposite xmlns="http://www.w3.org/2000/svg" in="pf_101_color" in2="pf_101_inverse" operator="in" result="pf_101_shadow"/><feComposite xmlns="http://www.w3.org/2000/svg" in="pf_101_shadow" in2="_out_dXleNiKSqBEnxb3qe48c2vssokJbrMEq" operator="over" result="_out_El3tYc2SxFzPCHmIcWTVrdHPftAfYcGy"/><feMerge><feMergeNode in="_out_El3tYc2SxFzPCHmIcWTVrdHPftAfYcGy"/></feMerge></filter></defs><g filter="url(#ldrBnaKG3ldx42uny41x1YWG9iOod3RS)"><g><rect x="117.068" y="43.712" width="5.864" height="77.796" transform="matrix(1,0,0,1,0,0)" fill="rgb(0,0,0)" vector-effect="non-scaling-stroke" stroke-width="1" stroke="rgb(0,0,0)" stroke-linejoin="miter" stroke-linecap="square" stroke-miterlimit="2"/><circle vector-effect="non-scaling-stroke" cx="120.00000315971292" cy="43.71208894871225" r="19.372850421974846" fill="rgb(186,225,227)" stroke-width="2" stroke="rgb(0,0,0)" stroke-linejoin="miter" stroke-linecap="square" stroke-miterlimit="3"/><circle vector-effect="non-scaling-stroke" cx="120.00000315971292" cy="121.5079562966026" r="19.372850421974846" fill="rgb(186,225,227)" stroke-width="2" stroke="rgb(0,0,0)" stroke-linejoin="miter" stroke-linecap="square" stroke-miterlimit="3"/></g><g><rect x="150.755" y="101.983" width="5.864" height="77.796" transform="matrix(0.5,-0.866,0.866,0.5,-45.163,203.537)" fill="rgb(0,0,0)" vector-effect="non-scaling-stroke" stroke-width="1" stroke="rgb(0,0,0)" stroke-linejoin="miter" stroke-linecap="square" stroke-miterlimit="2"/><path d=" M 110.314 138.209 C 101.054 132.863 97.877 121.005 103.223 111.745 C 108.569 102.486 120.427 99.308 129.687 104.654 C 138.946 110.001 142.124 121.859 136.778 131.118 C 131.432 140.378 119.574 143.555 110.314 138.209 Z " fill="rgb(186,225,227)" vector-effect="non-scaling-stroke" stroke-width="2" stroke="rgb(0,0,0)" stroke-linejoin="miter" stroke-linecap="square" stroke-miterlimit="3"/><path d=" M 177.687 177.107 C 168.427 171.761 165.25 159.903 170.596 150.643 C 175.942 141.384 187.8 138.206 197.06 143.552 C 206.32 148.898 209.497 160.757 204.151 170.016 C 198.805 179.276 186.947 182.453 177.687 177.107 Z " fill="rgb(186,225,227)" vector-effect="non-scaling-stroke" stroke-width="2" stroke="rgb(0,0,0)" stroke-linejoin="miter" stroke-linecap="square" stroke-miterlimit="3"/></g><g><rect x="83.381" y="101.983" width="5.864" height="77.796" transform="matrix(-0.5,-0.866,0.866,-0.5,7.463,286.071)" fill="rgb(0,0,0)" vector-effect="non-scaling-stroke" stroke-width="1" stroke="rgb(0,0,0)" stroke-linejoin="miter" stroke-linecap="square" stroke-miterlimit="2"/><path d=" M 62.313 177.107 C 53.053 182.453 41.195 179.276 35.849 170.016 C 30.503 160.757 33.68 148.898 42.94 143.552 C 52.2 138.206 64.058 141.384 69.404 150.643 C 74.75 159.903 71.573 171.761 62.313 177.107 Z " fill="rgb(186,225,227)" vector-effect="non-scaling-stroke" stroke-width="2" stroke="rgb(0,0,0)" stroke-linejoin="miter" stroke-linecap="square" stroke-miterlimit="3"/><path d=" M 129.686 138.209 C 120.426 143.555 108.568 140.378 103.222 131.118 C 97.876 121.859 101.054 110.001 110.313 104.654 C 119.573 99.308 131.431 102.486 136.777 111.745 C 142.123 121.005 138.946 132.863 129.686 138.209 Z " fill="rgb(186,225,227)" vector-effect="non-scaling-stroke" stroke-width="2" stroke="rgb(0,0,0)" stroke-linejoin="miter" stroke-linecap="square" stroke-miterlimit="3"/></g></g><defs><filter id="ldrBnaKG3ldx42uny41x1YWG9iOod3RS" x="-200%" y="-200%" width="400%" height="400%" filterUnits="objectBoundingBox" color-interpolation-filters="sRGB"><feGaussianBlur xmlns="http://www.w3.org/2000/svg" in="SourceGraphic" stdDeviation="0.42936090628390283"/><feOffset xmlns="http://www.w3.org/2000/svg" dx="0" dy="0" result="pf_100_offsetBlur"/><feFlood xmlns="http://www.w3.org/2000/svg" flood-color="#000000" flood-opacity="0.65"/><feComposite xmlns="http://www.w3.org/2000/svg" in2="pf_100_offsetBlur" operator="in" result="pf_100_dropShadow"/><feBlend xmlns="http://www.w3.org/2000/svg" in="SourceGraphic" in2="pf_100_dropShadow" mode="normal" result="_out_NCEZLb0QHg9V4QCVM1eLDARRGvmUaX86"/><feOffset xmlns="http://www.w3.org/2000/svg" in="_out_NCEZLb0QHg9V4QCVM1eLDARRGvmUaX86" dx="0" dy="0"/><feGaussianBlur xmlns="http://www.w3.org/2000/svg" stdDeviation="2.146804531419514" result="pf_101_offsetBlur"/><feComposite xmlns="http://www.w3.org/2000/svg" in="_out_NCEZLb0QHg9V4QCVM1eLDARRGvmUaX86" in2="pf_101_offsetBlur" result="pf_101_inverse" operator="out"/><feFlood xmlns="http://www.w3.org/2000/svg" flood-color="#000000" flood-opacity="0.5" result="pf_101_color"/><feComposite xmlns="http://www.w3.org/2000/svg" in="pf_101_color" in2="pf_101_inverse" operator="in" result="pf_101_shadow"/><feComposite xmlns="http://www.w3.org/2000/svg" in="pf_101_shadow" in2="_out_NCEZLb0QHg9V4QCVM1eLDARRGvmUaX86" operator="over" result="_out_7z9BeCNdszvHheRFRbIcDcJLSnhGTLTK"/><feMerge><feMergeNode in="_out_7z9BeCNdszvHheRFRbIcDcJLSnhGTLTK"/></feMerge></filter></defs></g></g></svg>
